<svg id="e9h61Tnu2fV1" xmlns="http://www.w3.org/2000/svg" xmlns:xlink="http://www.w3.org/1999/xlink" viewBox="0 0 431 440" shape-rendering="geometricPrecision" text-rendering="geometricPrecision" project-id="c64649859ad64017b14000d404e9a272" export-id="caacddcc0ce44bc88eb2db3e88ea6d12" cached="false"><path d="M130.856671,395.244386h-65.389696v-181.638045L198.426024,92.998678L335.744386,215.785996v177.278732h-92.272129" transform="translate(.000003 0.000001)" paint-order="stroke fill markers" fill="none" stroke="#3f5787" stroke-width="16" stroke-linecap="round" stroke-linejoin="round" stroke-dashoffset="880.3"/><path d="M289.794603,175.161571L200.605684,312.815248" fill="none" stroke="#3f5787" stroke-width="16" stroke-linecap="round" stroke-linejoin="round"/><path d="M200.605684,312.815247L164.714208,291.32151q-52.26377,46.799393-49.853707,47.401909t86.240396,54.341309l36.803971-54.341309-37.299184-25.908172Z" transform="translate(-.495212 0.000001)" fill="none" stroke="#3f5787" stroke-width="16" stroke-linecap="round" stroke-linejoin="round"/><path d="M0,-35.66228L8.573794,-8.573794L35.66228,0L8.573794,8.573794L0,35.66228L-8.573794,8.573794L-35.66228,0l27.088486-8.573794L0,-35.66228Z" transform="translate(289.794603 92.998679)" fill="none" stroke="#3f5787" stroke-width="14"/><path d="M0,-35.66228L8.573794,-8.573794L35.66228,0L8.573794,8.573794L0,35.66228L-8.573794,8.573794L-35.66228,0l27.088486-8.573794L0,-35.66228Z" transform="matrix(.617488 0 0 0.617488 335.744389 146.380712)" fill="none" stroke="#3f5787" stroke-width="16"/></svg>
